# xmcd
#
# Track frame offsets:
#	150
#	11713
#	20313
#	43715
#	58295
#	75517
#	89798
#	102203
#	123473
#	140255
#
# Disc length: 2242 seconds
#
# Revision: 0
# Processed by: cddbd v1.5.2PL0 Copyright (c) Steve Scherf et al.
# Submitted via: EZCDAudioConverter 1.0.8.1
#
DISCID=8108c00a
DTITLE=Andre Cristovam - The 2120 Sessions
DYEAR=1991
DGENRE=Blues
TTITLE0=Lighthouse
TTITLE1=Spear Dance
TTITLE2=Don't Ever Leave Me
TTITLE3=Calliope
TTITLE4=Hard Times Killing Floor
TTITLE5=Bad Feeling
TTITLE6=Don't Tell Me
TTITLE7=Made Up My Mind
TTITLE8=Reverend Of High Sierras
TTITLE9=I've Got A Feeling
EXTD=
EXTT0=
EXTT1=
EXTT2=
EXTT3=
EXTT4=
EXTT5=
EXTT6=
EXTT7=
EXTT8=
EXTT9=
PLAYORDER=
